<svg version="1.1" id="Layer_1" xmlns="http://www.w3.org/2000/svg" xmlns:xlink="http://www.w3.org/1999/xlink" x="0px" y="0px"
	 width="100%" viewBox="0 0 2000 1135" enable-background="new 0 0 2000 1135" xml:space="preserve">
<path fill="#47704C" opacity="1.000000" stroke="none" 
	d="
M2001.000000,923.000000 
	C2001.000000,993.980713 2001.000000,1064.961426 2001.000000,1136.000000 
	C1561.305298,1136.000000 1121.610596,1136.000000 681.708374,1135.721436 
	C683.433655,1134.954224 685.397705,1134.564209 687.294128,1133.961426 
	C703.394226,1128.844116 716.856873,1120.462158 726.309021,1105.732178 
	C736.160156,1090.380371 739.569519,1073.383667 739.790283,1055.904297 
	C740.368958,1010.086975 740.008423,964.257568 739.907349,918.433228 
	C739.903992,916.900818 738.662292,915.371094 737.626221,913.664551 
	C726.840881,913.605347 716.427063,913.721741 705.665710,914.020142 
	C704.660339,917.172974 704.002625,920.143860 703.325562,923.202393 
	C703.019348,923.149292 702.495117,923.158997 702.067993,922.960083 
	C701.477905,922.685303 700.900024,922.319580 700.421753,921.879028 
	C686.320679,908.887024 669.304626,907.311401 651.475830,909.779053 
	C636.556885,911.844116 624.095215,918.725281 613.055359,929.151184 
	C592.832397,948.249329 584.671326,971.871155 588.473206,998.602295 
	C592.721497,1028.472290 609.302979,1050.442505 638.140198,1061.305298 
	C660.285645,1069.647217 681.752197,1068.791016 700.874146,1052.755615 
	C701.563660,1052.177490 702.591003,1052.001953 704.462708,1051.220337 
	C703.920715,1059.041870 704.130310,1066.254028 702.811035,1073.174927 
	C698.496887,1095.806396 682.286072,1104.245972 662.530640,1103.694214 
	C646.791687,1103.254639 635.151550,1094.354370 627.812500,1080.462524 
	C625.690125,1076.445190 623.708984,1075.697144 619.691467,1077.625610 
	C612.661804,1080.999634 605.471680,1084.066162 598.224731,1086.949829 
	C594.648804,1088.372803 593.764160,1090.156494 595.378052,1093.705933 
	C601.720764,1107.655273 611.740723,1118.382080 624.915466,1125.773682 
	C632.476196,1130.015625 640.941772,1132.644775 649.000000,1136.000000 
	C433.109314,1136.000000 217.218643,1136.000000 1.000000,1136.000000 
	C1.000000,1078.305664 1.000000,1020.610779 1.277563,962.725586 
	C5.756530,984.801575 14.707900,1004.702026 29.390984,1022.233704 
	C41.837738,1037.095337 56.892323,1048.218140 74.310471,1056.063354 
	C92.411499,1064.216309 111.594124,1067.082153 131.504974,1066.105957 
	C150.016525,1065.198242 167.739380,1061.706177 183.936798,1052.464844 
	C200.501251,1043.014160 214.530228,1030.760132 223.949020,1013.848877 
	C235.592545,992.943115 239.983780,970.363831 238.844742,946.653625 
	C238.639069,942.372192 237.030960,938.158264 235.732147,933.663330 
	C234.245087,933.278992 233.096298,933.027649 231.947342,933.026917 
	C197.569138,933.004822 163.190918,932.993835 128.812790,933.049988 
	C127.222832,933.052551 125.633911,933.691345 123.754501,934.336914 
	C123.311295,943.617371 123.386543,952.606812 122.915604,961.567444 
	C122.650932,966.603271 124.305260,968.163147 129.387787,968.105469 
	C151.373199,967.856018 173.363113,967.986816 195.351303,968.024109 
	C197.408371,968.027588 199.464905,968.345398 201.495895,968.515076 
	C200.725266,981.614441 195.140274,995.636719 187.806808,1003.689270 
	C165.850647,1027.798706 138.258438,1036.383423 107.086067,1029.521240 
	C69.082535,1021.155273 42.670063,992.643127 39.247562,952.580505 
	C36.713539,922.918030 46.225212,897.498657 69.579674,877.675903 
	C91.189011,859.334351 115.900650,855.220276 142.898788,859.489136 
	C157.301178,861.766418 169.489929,868.595825 180.180069,878.170288 
	C183.491135,881.135803 185.810425,880.662476 188.507187,877.794617 
	C192.947647,873.072266 197.524582,868.476074 201.893494,863.689392 
	C204.031921,861.346497 207.587967,858.484985 207.319534,856.238586 
	C207.016418,853.701904 203.226334,851.493713 200.799622,849.312988 
	C181.577103,832.038574 158.321014,824.358093 133.187714,822.181580 
	C116.688965,820.752747 100.516190,823.560730 84.693321,828.858215 
	C61.447739,836.640808 42.658409,850.420959 27.175821,869.181458 
	C17.945984,880.365417 11.549170,893.054565 6.772757,906.585327 
	C4.423521,913.240234 2.898176,920.185913 0.999997,927.000000 
	C1.000000,618.400085 1.000000,309.800171 1.000000,1.000000 
	C333.361328,1.000000 665.722717,1.000000 998.388306,1.300288 
	C997.643494,2.402561 996.580566,3.187109 995.547363,4.009066 
	C976.203247,19.398483 956.888672,34.825161 937.512085,50.173531 
	C924.906555,60.158524 912.163391,69.970001 899.570129,79.970390 
	C886.438599,90.398277 873.472107,101.034195 860.323975,111.440834 
	C847.964844,121.223030 835.398560,130.743469 823.038208,140.524170 
	C802.217773,156.999329 781.516235,173.624695 760.709839,190.117706 
	C747.969177,200.217133 735.086853,210.137772 722.337708,220.226593 
	C697.491699,239.887985 672.676819,259.588959 647.890198,279.325165 
	C642.115479,283.923309 636.505371,288.728302 630.374512,293.806824 
	C647.733704,307.936523 664.278687,321.451813 680.878540,334.899445 
	C693.500793,345.124847 706.241821,355.203827 718.841797,365.456390 
	C736.626221,379.927582 754.344482,394.480469 772.061462,409.034302 
	C782.549316,417.649628 792.980347,426.334076 803.415710,435.330017 
	C801.462219,440.566772 799.365662,445.403412 797.627014,450.365448 
	C791.095520,469.006042 785.962891,488.109650 785.169861,507.842316 
	C784.455017,525.630493 784.443665,543.476440 787.822266,561.249878 
	C793.513550,591.189819 803.911072,619.101624 820.930298,644.400879 
	C831.090454,659.504028 842.563293,673.629761 856.758972,685.129700 
	C868.295593,694.475586 880.137573,703.544800 892.523926,711.704773 
	C900.088318,716.688171 908.767456,720.149902 917.252075,723.525391 
	C929.404846,728.360352 941.603027,733.410583 954.225220,736.631226 
	C964.177002,739.170349 974.797974,739.086731 985.483521,740.330444 
	C996.523010,740.384521 1007.200623,740.276245 1018.334961,740.105347 
	C1021.122131,739.999512 1023.494263,740.224487 1025.776611,739.870605 
	C1044.035522,737.039734 1061.888794,732.877625 1079.247681,726.201050 
	C1097.756958,719.082031 1114.881958,709.641541 1130.627808,697.843567 
	C1151.293945,682.358765 1168.591797,663.683350 1182.884644,641.975891 
	C1204.411133,609.281982 1215.194458,573.217346 1217.742676,534.639160 
	C1218.642090,521.024536 1217.540894,507.095428 1215.729004,493.526733 
	C1213.023071,473.262756 1206.637573,453.845184 1199.050781,434.662628 
	C1205.731934,429.212189 1212.247925,424.080048 1218.680176,418.845032 
	C1231.173828,408.676880 1243.606934,398.434235 1256.090332,388.253418 
	C1268.970459,377.749023 1281.887939,367.290375 1294.775635,356.795380 
	C1309.328125,344.944824 1323.841187,333.045685 1338.418823,321.226135 
	C1348.219482,313.279785 1358.118774,305.455261 1367.938477,297.532074 
	C1370.824707,295.203278 1371.964355,293.263153 1368.010376,290.231018 
	C1353.381226,279.012665 1339.041260,267.416656 1324.605835,255.946045 
	C1294.020874,231.642746 1263.466187,207.301483 1232.856689,183.029312 
	C1211.895752,166.408234 1190.833862,149.914459 1169.871094,133.295624 
	C1149.181641,116.893463 1128.597412,100.358322 1107.894775,83.972816 
	C1095.254517,73.968483 1082.423584,64.205208 1069.776367,54.209667 
	C1054.143066,41.854271 1038.576538,29.413851 1023.052856,16.920919 
	C1016.606201,11.732848 1010.345337,6.313928 1004.000000,0.999990 
	C1336.260986,1.000000 1668.521973,1.000000 2001.000000,1.000000 
	C2001.000000,305.694672 2001.000000,610.389404 2000.621094,915.466675 
	C1975.418213,908.313843 1954.917847,914.943237 1937.999023,936.295654 
	C1937.999023,931.746155 1938.006104,928.770752 1937.997681,925.795288 
	C1937.973145,917.130249 1937.879883,917.031128 1929.460571,917.003662 
	C1925.294434,916.990051 1921.128174,916.989136 1916.962036,917.003906 
	C1909.171509,917.031494 1909.017212,917.160828 1909.007690,924.751343 
	C1908.987671,940.582886 1909.000000,956.414429 1909.000000,972.245972 
	C1908.999878,1000.742737 1908.994141,1029.239502 1909.004761,1057.736206 
	C1909.007935,1065.974365 1909.030029,1065.979614 1917.456421,1065.997192 
	C1922.289185,1066.007324 1927.122314,1066.024780 1931.954834,1065.989258 
	C1938.616821,1065.940308 1938.980347,1065.603271 1938.987305,1058.825928 
	C1939.013306,1033.662109 1938.630127,1008.489258 1939.245972,983.340454 
	C1939.415405,976.421692 1940.989380,968.606506 1944.592773,962.887146 
	C1953.386108,948.929749 1965.880249,939.444885 1987.500366,944.189209 
	C1991.782593,945.128906 1993.920654,944.414368 1995.139404,939.927856 
	C1996.701050,934.178772 1999.011841,928.633240 2001.000000,923.000000 
M758.440002,1060.479614 
	C760.488708,1060.983032 762.526123,1061.857666 764.588318,1061.920410 
	C770.915588,1062.113647 777.252380,1062.012573 783.585388,1061.994141 
	C792.559265,1061.968262 792.994080,1061.552124 792.995239,1052.747070 
	C793.002991,995.249451 793.000549,937.751770 792.999329,880.254150 
	C792.999023,866.088074 792.907410,851.921265 793.034912,837.756348 
	C793.076355,833.151672 791.288025,830.948242 786.587158,831.007446 
	C778.922180,831.104004 771.246216,830.830444 763.595093,831.169739 
	C761.655396,831.255798 759.792114,833.065796 757.523926,834.806763 
	C757.349915,836.787659 757.024475,838.768433 757.023743,840.749390 
	C756.997559,911.520813 756.993347,982.292297 757.039124,1053.063721 
	C757.040649,1055.348022 757.596375,1057.632202 758.440002,1060.479614 
M1061.508179,861.997131 
	C1060.566406,862.941040 1059.607422,863.868591 1058.685303,864.831238 
	C1041.551880,882.715637 1037.855835,907.878540 1049.238770,929.451660 
	C1055.135742,940.627808 1064.356445,948.666809 1075.430664,953.966064 
	C1086.950317,959.478455 1099.237671,963.367126 1111.087280,968.215332 
	C1123.207764,973.174561 1136.018188,977.113831 1145.371948,986.972412 
	C1158.805176,1001.130493 1156.107910,1020.819763 1144.038208,1031.179810 
	C1126.166992,1046.519409 1099.730957,1046.276611 1081.438843,1029.881836 
	C1073.854736,1023.084412 1068.335693,1014.733215 1065.188965,1005.091675 
	C1063.536133,1000.027710 1061.085083,1000.071472 1057.083252,1001.940308 
	C1051.808838,1004.403381 1046.468994,1006.779846 1040.999023,1008.754639 
	C1036.611450,1010.338562 1035.639282,1012.742615 1036.817993,1017.181091 
	C1040.986206,1032.877686 1050.550781,1045.123657 1062.851318,1054.708374 
	C1082.436890,1069.969727 1105.271118,1074.270386 1129.444824,1069.464966 
	C1142.227051,1066.923950 1154.337036,1061.968262 1164.340942,1053.120361 
	C1178.703369,1040.417847 1184.757080,1024.850220 1184.398682,1005.268188 
	C1184.022217,984.703064 1175.328247,969.226379 1159.645874,958.243042 
	C1148.233643,950.250366 1134.666138,945.192505 1121.750854,939.530273 
	C1109.443604,934.134766 1096.127441,931.088562 1084.849121,923.282166 
	C1072.953003,915.048157 1070.019043,899.166809 1078.778564,887.756592 
	C1087.720947,876.107971 1100.627441,872.479858 1114.258179,873.599548 
	C1129.645996,874.863586 1142.254639,881.943054 1148.586060,897.195496 
	C1150.009399,900.624329 1152.268066,901.070801 1155.369141,899.706360 
	C1161.463379,897.024719 1167.484253,894.141602 1173.709717,891.806213 
	C1177.593994,890.349060 1177.924805,888.212646 1176.420898,884.937134 
	C1169.486084,869.833740 1158.827271,858.680054 1143.397339,851.830872 
	C1131.352905,846.484253 1119.016357,844.595337 1105.974121,844.907715 
	C1089.273560,845.307861 1074.868896,851.198120 1061.508179,861.997131 
M933.005859,1049.498657 
	C937.778320,1044.699219 942.657349,1039.999023 947.268616,1035.049561 
	C949.015442,1033.174561 950.063232,1030.691162 947.111450,1028.686401 
	C940.148254,1023.957092 933.164307,1019.258545 926.178406,1014.562866 
	C923.118713,1012.506165 920.931458,1012.552612 918.342407,1015.989807 
	C907.987122,1029.737183 894.448792,1035.558105 876.914429,1033.238770 
	C863.196411,1031.424194 854.816467,1023.579285 847.677979,1012.361328 
	C850.525085,1010.864807 852.900024,1009.372375 855.454102,1008.311279 
	C884.370300,996.298340 913.315735,984.355957 942.249084,972.384338 
	C951.467346,968.570068 951.332947,968.602600 948.056030,959.552795 
	C942.124146,943.170593 932.221741,929.622681 917.999084,919.766846 
	C901.417175,908.276123 882.610962,906.734558 863.302490,910.428711 
	C845.472290,913.840027 831.125671,923.257202 820.638611,937.988525 
	C812.610229,949.266052 807.615234,961.829529 805.821960,975.806519 
	C804.040161,989.693726 805.134460,1003.137207 810.172058,1016.042114 
	C818.158813,1036.502075 831.465698,1052.055542 852.527771,1060.286743 
	C869.314392,1066.847168 886.405640,1068.130005 903.750610,1063.818359 
	C914.172180,1061.227783 924.194580,1057.275024 933.005859,1049.498657 
M528.240845,1060.896240 
	C541.874146,1055.891724 552.951233,1047.020386 561.309204,1035.629150 
	C573.397644,1019.153503 579.591003,1000.642517 577.142517,979.558044 
	C574.288513,954.982605 562.583435,936.016541 542.700623,922.002991 
	C527.358459,911.189758 510.063782,907.338867 491.322845,908.911133 
	C474.348755,910.335144 459.178192,915.960571 446.418884,927.185608 
	C419.888428,950.525818 410.901093,986.591797 425.222778,1019.043518 
	C433.155579,1037.018677 445.728271,1051.162720 463.937103,1059.222046 
	C484.729034,1068.424805 506.027161,1069.751587 528.240845,1060.896240 
M403.965302,1015.320251 
	C408.458282,1000.969116 409.892426,986.470398 407.061737,971.531250 
	C403.174103,951.014038 392.280151,935.066345 375.689026,922.990845 
	C359.910889,911.507141 342.109436,907.500610 322.567352,908.814758 
	C300.742523,910.282410 282.960388,919.801636 269.227753,935.722961 
	C252.371475,955.265869 246.587921,978.603699 252.046814,1004.169434 
	C257.339050,1028.954712 271.434174,1047.338867 294.119324,1058.434326 
	C307.776642,1065.114136 322.339569,1068.086060 337.946777,1066.173218 
	C356.928070,1063.846680 373.186554,1056.454346 386.428986,1042.883057 
	C393.931274,1035.194336 400.159454,1026.406982 403.965302,1015.320251 
M1464.896729,915.431519 
	C1439.023804,909.379211 1415.425171,912.056580 1396.640137,934.437195 
	C1396.343018,932.608276 1396.143677,931.971497 1396.150269,931.336731 
	C1396.414795,906.033020 1396.671143,880.729004 1397.006714,855.426147 
	C1397.056763,851.657166 1395.579712,849.899719 1391.704468,849.991272 
	C1386.375122,850.117188 1381.040405,849.997314 1375.708008,850.003296 
	C1367.024414,850.013123 1367.005249,850.020142 1367.003906,858.510681 
	C1366.996948,904.669556 1367.000000,950.828369 1367.000122,996.987244 
	C1367.000122,1017.483765 1366.988159,1037.980225 1367.009521,1058.476807 
	C1367.017212,1065.757568 1367.254517,1065.964600 1374.695312,1065.994141 
	C1379.860962,1066.014771 1385.027100,1066.029785 1390.192505,1065.986450 
	C1396.528564,1065.933105 1396.976074,1065.515015 1396.984253,1059.088623 
	C1397.014160,1035.592651 1397.126343,1012.095642 1396.942871,988.601013 
	C1396.858521,977.800964 1399.335327,967.820129 1404.853882,958.593323 
	C1415.920532,940.090271 1433.195923,935.886475 1452.233276,942.953796 
	C1456.262573,944.449585 1459.837280,948.251770 1462.629395,951.776978 
	C1468.819336,959.591614 1469.877197,969.191467 1469.938721,978.748230 
	C1470.109253,1005.242676 1469.990723,1031.739014 1470.007690,1058.234497 
	C1470.012451,1065.830322 1470.179199,1065.969971 1477.952759,1065.995361 
	C1482.951904,1066.011597 1487.951294,1066.024780 1492.950195,1065.989380 
	C1499.624756,1065.941895 1499.980957,1065.613037 1499.987061,1058.836914 
	C1500.011230,1032.174805 1500.063477,1005.512390 1499.952515,978.850647 
	C1499.926147,972.545227 1499.746338,966.180786 1498.877808,959.949402 
	C1495.979004,939.156189 1485.995117,923.491821 1464.896729,915.431519 
M1755.537476,937.101685 
	C1752.425903,940.772705 1753.195312,943.439514 1757.277344,945.921570 
	C1762.677246,949.204895 1767.823853,952.906921 1773.057373,956.461243 
	C1776.184937,958.585205 1778.302612,958.150146 1781.116333,955.183044 
	C1785.278320,950.794495 1790.135498,946.921814 1795.174805,943.542847 
	C1802.414917,938.688477 1810.887695,940.007324 1819.001221,940.080566 
	C1834.589844,940.221252 1849.676880,954.301758 1850.909790,969.711182 
	C1851.330078,974.964539 1850.359131,975.865234 1845.442017,974.232117 
	C1824.410645,967.246948 1803.316406,967.283875 1782.040283,973.132751 
	C1762.498291,978.504944 1747.396240,997.271912 1747.070801,1017.595642 
	C1746.738525,1038.352295 1756.122559,1053.830322 1774.318726,1063.423340 
	C1793.655151,1073.617432 1813.549805,1074.706543 1832.934814,1063.505371 
	C1839.233765,1059.865479 1844.589966,1054.594238 1851.030762,1049.558350 
	C1851.030762,1053.414673 1851.107544,1057.161987 1851.008789,1060.904419 
	C1850.913818,1064.501465 1852.551758,1066.055054 1856.125732,1065.996948 
	C1861.623047,1065.907349 1867.123169,1066.014771 1872.621948,1065.990601 
	C1879.684204,1065.959351 1879.984253,1065.687744 1879.988892,1058.665161 
	C1880.008179,1029.504150 1880.471680,1000.333069 1879.850952,971.185303 
	C1879.316895,946.112000 1867.302734,927.578979 1844.074219,917.632568 
	C1826.794922,910.233582 1808.400146,911.685974 1790.472534,914.848145 
	C1776.386719,917.332703 1765.466797,926.089783 1755.537476,937.101685 
M1544.005493,933.495239 
	C1542.318848,935.328918 1540.473755,937.041748 1538.969482,939.014526 
	C1518.843506,965.409851 1515.933838,994.368286 1527.302979,1024.861572 
	C1532.778687,1039.547852 1542.937500,1051.176025 1556.245972,1059.506958 
	C1570.450317,1068.398438 1586.135010,1072.143188 1602.962158,1071.021362 
	C1625.403687,1069.525269 1644.243286,1060.674805 1658.015747,1042.807373 
	C1671.603882,1025.179199 1676.461060,1004.856628 1674.159668,982.700195 
	C1671.976074,961.678040 1664.296753,943.622253 1647.515137,929.976135 
	C1637.413940,921.762146 1626.642212,914.989136 1613.442627,913.486511 
	C1607.353149,912.793274 1601.130249,913.367798 1594.995483,912.956299 
	C1574.940430,911.611023 1558.928833,920.253601 1544.005493,933.495239 
M1340.708252,958.230591 
	C1345.109863,956.596497 1344.126221,953.445007 1342.695557,950.448547 
	C1336.296997,937.047668 1325.584595,927.753418 1313.241699,920.141663 
	C1297.728027,910.574402 1280.197144,911.101562 1263.667114,913.787048 
	C1232.998047,918.769653 1213.762329,938.506348 1205.208374,967.895691 
	C1198.514282,990.895386 1201.001953,1013.430420 1213.237183,1034.433350 
	C1223.062744,1051.299805 1237.366211,1062.640503 1256.145020,1067.979614 
	C1278.786621,1074.416870 1300.400513,1071.677368 1320.420532,1059.187378 
	C1330.786621,1052.720337 1338.530640,1043.643555 1343.653076,1032.448608 
	C1345.253296,1028.951660 1344.626465,1026.498657 1340.805054,1024.907837 
	C1335.891724,1022.862305 1331.164429,1020.372437 1326.263428,1018.294312 
	C1319.457397,1015.408569 1319.324951,1015.447998 1316.036133,1021.956299 
	C1308.600098,1036.671387 1289.563599,1045.604736 1273.104370,1043.252808 
	C1253.523804,1040.454590 1241.619507,1028.531250 1235.366943,1010.481567 
	C1227.766846,988.540833 1232.737061,968.388000 1248.020264,952.059204 
	C1265.990234,932.859680 1300.808594,934.858032 1314.853271,961.976929 
	C1317.175781,966.461487 1319.538086,967.150757 1323.849365,965.140015 
	C1329.113892,962.684692 1334.609253,960.724243 1340.708252,958.230591 
M1726.000000,1013.500000 
	C1726.000000,962.540527 1726.000244,911.581055 1725.998779,860.621582 
	C1725.998657,858.789795 1725.911621,856.955139 1725.985840,855.126770 
	C1726.130493,851.557434 1724.505371,849.944214 1720.910278,850.004150 
	C1715.582886,850.093018 1710.252563,849.998840 1704.923584,850.002930 
	C1696.018311,850.009766 1696.003418,850.016541 1696.002808,858.785400 
	C1695.998413,924.899536 1696.000244,991.013672 1696.001831,1057.127808 
	C1696.001953,1058.459961 1696.066895,1059.793457 1696.026123,1061.124023 
	C1695.924194,1064.454712 1697.485718,1066.009521 1700.839355,1065.981812 
	C1707.000488,1065.930908 1713.162842,1066.026855 1719.324097,1065.982910 
	C1725.456665,1065.939209 1725.959961,1065.477661 1725.978760,1059.464233 
	C1726.025879,1044.476318 1725.997925,1029.488037 1726.000000,1013.500000 
z"/>
<path fill="#2F68AC" opacity="1.000000" stroke="none" 
	d="
M1003.625000,0.999990 
	C1010.345337,6.313928 1016.606201,11.732848 1023.052856,16.920919 
	C1038.576538,29.413851 1054.143066,41.854271 1069.776367,54.209667 
	C1082.423584,64.205208 1095.254517,73.968483 1107.894775,83.972816 
	C1128.597412,100.358322 1149.181641,116.893463 1169.871094,133.295624 
	C1190.833862,149.914459 1211.895752,166.408234 1232.856689,183.029312 
	C1263.466187,207.301483 1294.020874,231.642746 1324.605835,255.946045 
	C1339.041260,267.416656 1353.381226,279.012665 1368.010376,290.231018 
	C1371.964355,293.263153 1370.824707,295.203278 1367.938477,297.532074 
	C1358.118774,305.455261 1348.219482,313.279785 1338.418823,321.226135 
	C1323.841187,333.045685 1309.328125,344.944824 1294.775635,356.795380 
	C1281.887939,367.290375 1268.970459,377.749023 1256.090332,388.253418 
	C1243.606934,398.434235 1231.173828,408.676880 1218.680176,418.845032 
	C1212.247925,424.080048 1205.731934,429.212189 1198.744629,434.613708 
	C1197.463379,433.910797 1196.691528,432.985046 1195.823242,431.721436 
	C1166.785522,372.857971 1120.949097,334.315704 1058.202637,316.500153 
	C1039.685059,311.242432 1020.467285,308.694733 1001.068298,308.137817 
	C1001.042175,205.463669 1001.021118,103.231834 1001.000000,1.000000 
	C1001.750000,1.000000 1002.500000,1.000000 1003.625000,0.999990 
z"/>
<path fill="#3E81BA" opacity="1.000000" stroke="none" 
	d="
M1000.666687,1.000000 
	C1001.021118,103.231834 1001.042175,205.463669 1000.599731,308.201172 
	C999.304565,308.753448 998.473450,308.820618 997.641174,308.843719 
	C933.698120,310.622253 880.498474,335.546783 838.140076,383.366943 
	C825.282227,397.882721 814.376343,413.831146 806.666809,432.148254 
	C805.441589,433.265106 804.439270,434.126282 803.436951,434.987457 
	C792.980347,426.334076 782.549316,417.649628 772.061462,409.034302 
	C754.344482,394.480469 736.626221,379.927582 718.841797,365.456390 
	C706.241821,355.203827 693.500793,345.124847 680.878540,334.899445 
	C664.278687,321.451813 647.733704,307.936523 630.374512,293.806824 
	C636.505371,288.728302 642.115479,283.923309 647.890198,279.325165 
	C672.676819,259.588959 697.491699,239.887985 722.337708,220.226593 
	C735.086853,210.137772 747.969177,200.217133 760.709839,190.117706 
	C781.516235,173.624695 802.217773,156.999329 823.038208,140.524170 
	C835.398560,130.743469 847.964844,121.223030 860.323975,111.440834 
	C873.472107,101.034195 886.438599,90.398277 899.570129,79.970390 
	C912.163391,69.970001 924.906555,60.158524 937.512085,50.173531 
	C956.888672,34.825161 976.203247,19.398483 995.547363,4.009066 
	C996.580566,3.187109 997.643494,2.402561 998.846313,1.300288 
	C999.444458,1.000000 999.888916,1.000000 1000.666687,1.000000 
z"/>
<path fill="#3E81BA" opacity="1.000000" stroke="none" 
	d="
M0.999997,927.468628 
	C2.898176,920.185913 4.423521,913.240234 6.772757,906.585327 
	C11.549170,893.054565 17.945984,880.365417 27.175821,869.181458 
	C42.658409,850.420959 61.447739,836.640808 84.693321,828.858215 
	C100.516190,823.560730 116.688965,820.752747 133.187714,822.181580 
	C158.321014,824.358093 181.577103,832.038574 200.799622,849.312988 
	C203.226334,851.493713 207.016418,853.701904 207.319534,856.238586 
	C207.587967,858.484985 204.031921,861.346497 201.893494,863.689392 
	C197.524582,868.476074 192.947647,873.072266 188.507187,877.794617 
	C185.810425,880.662476 183.491135,881.135803 180.180069,878.170288 
	C169.489929,868.595825 157.301178,861.766418 142.898788,859.489136 
	C115.900650,855.220276 91.189011,859.334351 69.579674,877.675903 
	C46.225212,897.498657 36.713539,922.918030 39.247562,952.580505 
	C42.670063,992.643127 69.082535,1021.155273 107.086067,1029.521240 
	C138.258438,1036.383423 165.850647,1027.798706 187.806808,1003.689270 
	C195.140274,995.636719 200.725266,981.614441 201.495895,968.515076 
	C199.464905,968.345398 197.408371,968.027588 195.351303,968.024109 
	C173.363113,967.986816 151.373199,967.856018 129.387787,968.105469 
	C124.305260,968.163147 122.650932,966.603271 122.915604,961.567444 
	C123.386543,952.606812 123.311295,943.617371 124.220505,934.335632 
	C162.007782,933.991882 199.039062,933.952515 236.070328,933.913208 
	C237.030960,938.158264 238.639069,942.372192 238.844742,946.653625 
	C239.983780,970.363831 235.592545,992.943115 223.949020,1013.848877 
	C214.530228,1030.760132 200.501251,1043.014160 183.936798,1052.464844 
	C167.739380,1061.706177 150.016525,1065.198242 131.504974,1066.105957 
	C111.594124,1067.082153 92.411499,1064.216309 74.310471,1056.063354 
	C56.892323,1048.218140 41.837738,1037.095337 29.390984,1022.233704 
	C14.707900,1004.702026 5.756530,984.801575 1.277563,962.267578 
	C1.000000,950.645752 1.000000,939.291565 0.999997,927.468628 
z"/>
<path fill="#3E81BA" opacity="1.000000" stroke="none" 
	d="
M649.468628,1136.000000 
	C640.941772,1132.644775 632.476196,1130.015625 624.915466,1125.773682 
	C611.740723,1118.382080 601.720764,1107.655273 595.378052,1093.705933 
	C593.764160,1090.156494 594.648804,1088.372803 598.224731,1086.949829 
	C605.471680,1084.066162 612.661804,1080.999634 619.691467,1077.625610 
	C623.708984,1075.697144 625.690125,1076.445190 627.812500,1080.462524 
	C635.151550,1094.354370 646.791687,1103.254639 662.530640,1103.694214 
	C682.286072,1104.245972 698.496887,1095.806396 702.811035,1073.174927 
	C704.130310,1066.254028 703.920715,1059.041870 704.462708,1051.220337 
	C702.591003,1052.001953 701.563660,1052.177490 700.874146,1052.755615 
	C681.752197,1068.791016 660.285645,1069.647217 638.140198,1061.305298 
	C609.302979,1050.442505 592.721497,1028.472290 588.473206,998.602295 
	C584.671326,971.871155 592.832397,948.249329 613.055359,929.151184 
	C624.095215,918.725281 636.556885,911.844116 651.475830,909.779053 
	C669.304626,907.311401 686.320679,908.887024 700.421753,921.879028 
	C700.900024,922.319580 701.477905,922.685303 702.067993,922.960083 
	C702.495117,923.158997 703.019348,923.149292 703.325562,923.202393 
	C704.002625,920.143860 704.660339,917.172974 706.131653,914.060059 
	C717.296082,913.892090 727.646912,913.866089 737.997803,913.840149 
	C738.662292,915.371094 739.903992,916.900818 739.907349,918.433228 
	C740.008423,964.257568 740.368958,1010.086975 739.790283,1055.904297 
	C739.569519,1073.383667 736.160156,1090.380371 726.309021,1105.732178 
	C716.856873,1120.462158 703.394226,1128.844116 687.294128,1133.961426 
	C685.397705,1134.564209 683.433655,1134.954224 681.250488,1135.721436 
	C670.645752,1136.000000 660.291565,1136.000000 649.468628,1136.000000 
M694.008423,953.505981 
	C673.534058,932.455322 643.692871,939.429749 630.451782,963.588013 
	C619.651794,983.292664 621.513184,1002.505493 636.480164,1020.365112 
	C650.234436,1036.777588 679.444702,1038.741699 694.705566,1021.706848 
	C711.107178,1003.398621 710.933655,972.318176 694.008423,953.505981 
z"/>
<path fill="#767676" opacity="1.000000" stroke="none" 
	d="
M2001.000000,922.562500 
	C1999.011841,928.633240 1996.701050,934.178772 1995.139404,939.927856 
	C1993.920654,944.414368 1991.782593,945.128906 1987.500366,944.189209 
	C1965.880249,939.444885 1953.386108,948.929749 1944.592773,962.887146 
	C1940.989380,968.606506 1939.415405,976.421692 1939.245972,983.340454 
	C1938.630127,1008.489258 1939.013306,1033.662109 1938.987305,1058.825928 
	C1938.980347,1065.603271 1938.616821,1065.940308 1931.954834,1065.989258 
	C1927.122314,1066.024780 1922.289185,1066.007324 1917.456421,1065.997192 
	C1909.030029,1065.979614 1909.007935,1065.974365 1909.004761,1057.736206 
	C1908.994141,1029.239502 1908.999878,1000.742737 1909.000000,972.245972 
	C1909.000000,956.414429 1908.987671,940.582886 1909.007690,924.751343 
	C1909.017212,917.160828 1909.171509,917.031494 1916.962036,917.003906 
	C1921.128174,916.989136 1925.294434,916.990051 1929.460571,917.003662 
	C1937.879883,917.031128 1937.973145,917.130249 1937.997681,925.795288 
	C1938.006104,928.770752 1937.999023,931.746155 1937.999023,936.295654 
	C1954.917847,914.943237 1975.418213,908.313843 2000.621094,915.924622 
	C2001.000000,918.041687 2001.000000,920.083313 2001.000000,922.562500 
z"/>
<path fill="#A1C2DD" opacity="1.000000" stroke="none" 
	d="
M803.415710,435.330017 
	C804.439270,434.126282 805.441589,433.265106 807.143066,432.180786 
	C810.338989,431.989777 812.835754,432.049988 815.332581,432.050110 
	C942.194885,432.056396 1069.057251,432.057556 1195.919556,432.059265 
	C1196.691528,432.985046 1197.463379,433.910797 1198.541504,434.885498 
	C1206.637573,453.845184 1213.023071,473.262756 1215.729004,493.526733 
	C1217.540894,507.095428 1218.642090,521.024536 1217.742676,534.639160 
	C1215.194458,573.217346 1204.411133,609.281982 1182.884644,641.975891 
	C1168.591797,663.683350 1151.293945,682.358765 1130.627808,697.843567 
	C1114.881958,709.641541 1097.756958,719.082031 1079.247681,726.201050 
	C1061.888794,732.877625 1044.035522,737.039734 1025.776611,739.870605 
	C1023.494263,740.224487 1021.122131,739.999512 1017.886780,740.045837 
	C1006.361877,740.088623 995.741821,740.128357 985.121765,740.168091 
	C974.797974,739.086731 964.177002,739.170349 954.225220,736.631226 
	C941.603027,733.410583 929.404846,728.360352 917.252075,723.525391 
	C908.767456,720.149902 900.088318,716.688171 892.523926,711.704773 
	C880.137573,703.544800 868.295593,694.475586 856.758972,685.129700 
	C842.563293,673.629761 831.090454,659.504028 820.930298,644.400879 
	C803.911072,619.101624 793.513550,591.189819 787.822266,561.249878 
	C784.443665,543.476440 784.455017,525.630493 785.169861,507.842316 
	C785.962891,488.109650 791.095520,469.006042 797.627014,450.365448 
	C799.365662,445.403412 801.462219,440.566772 803.415710,435.330017 
z"/>
<path fill="#767676" opacity="1.000000" stroke="none" 
	d="
M1061.762451,861.746704 
	C1074.868896,851.198120 1089.273560,845.307861 1105.974121,844.907715 
	C1119.016357,844.595337 1131.352905,846.484253 1143.397339,851.830872 
	C1158.827271,858.680054 1169.486084,869.833740 1176.420898,884.937134 
	C1177.924805,888.212646 1177.593994,890.349060 1173.709717,891.806213 
	C1167.484253,894.141602 1161.463379,897.024719 1155.369141,899.706360 
	C1152.268066,901.070801 1150.009399,900.624329 1148.586060,897.195496 
	C1142.254639,881.943054 1129.645996,874.863586 1114.258179,873.599548 
	C1100.627441,872.479858 1087.720947,876.107971 1078.778564,887.756592 
	C1070.019043,899.166809 1072.953003,915.048157 1084.849121,923.282166 
	C1096.127441,931.088562 1109.443604,934.134766 1121.750854,939.530273 
	C1134.666138,945.192505 1148.233643,950.250366 1159.645874,958.243042 
	C1175.328247,969.226379 1184.022217,984.703064 1184.398682,1005.268188 
	C1184.757080,1024.850220 1178.703369,1040.417847 1164.340942,1053.120361 
	C1154.337036,1061.968262 1142.227051,1066.923950 1129.444824,1069.464966 
	C1105.271118,1074.270386 1082.436890,1069.969727 1062.851318,1054.708374 
	C1050.550781,1045.123657 1040.986206,1032.877686 1036.817993,1017.181091 
	C1035.639282,1012.742615 1036.611450,1010.338562 1040.999023,1008.754639 
	C1046.468994,1006.779846 1051.808838,1004.403381 1057.083252,1001.940308 
	C1061.085083,1000.071472 1063.536133,1000.027710 1065.188965,1005.091675 
	C1068.335693,1014.733215 1073.854736,1023.084412 1081.438843,1029.881836 
	C1099.730957,1046.276611 1126.166992,1046.519409 1144.038208,1031.179810 
	C1156.107910,1020.819763 1158.805176,1001.130493 1145.371948,986.972412 
	C1136.018188,977.113831 1123.207764,973.174561 1111.087280,968.215332 
	C1099.237671,963.367126 1086.950317,959.478455 1075.430664,953.966064 
	C1064.356445,948.666809 1055.135742,940.627808 1049.238770,929.451660 
	C1037.855835,907.878540 1041.551880,882.715637 1058.685303,864.831238 
	C1059.607422,863.868591 1060.566406,862.941040 1061.762451,861.746704 
z"/>
<path fill="#E84335" opacity="1.000000" stroke="none" 
	d="
M932.748779,1049.752686 
	C924.194580,1057.275024 914.172180,1061.227783 903.750610,1063.818359 
	C886.405640,1068.130005 869.314392,1066.847168 852.527771,1060.286743 
	C831.465698,1052.055542 818.158813,1036.502075 810.172058,1016.042114 
	C805.134460,1003.137207 804.040161,989.693726 805.821960,975.806519 
	C807.615234,961.829529 812.610229,949.266052 820.638611,937.988525 
	C831.125671,923.257202 845.472290,913.840027 863.302490,910.428711 
	C882.610962,906.734558 901.417175,908.276123 917.999084,919.766846 
	C932.221741,929.622681 942.124146,943.170593 948.056030,959.552795 
	C951.332947,968.602600 951.467346,968.570068 942.249084,972.384338 
	C913.315735,984.355957 884.370300,996.298340 855.454102,1008.311279 
	C852.900024,1009.372375 850.525085,1010.864807 847.677979,1012.361328 
	C854.816467,1023.579285 863.196411,1031.424194 876.914429,1033.238770 
	C894.448792,1035.558105 907.987122,1029.737183 918.342407,1015.989807 
	C920.931458,1012.552612 923.118713,1012.506165 926.178406,1014.562866 
	C933.164307,1019.258545 940.148254,1023.957092 947.111450,1028.686401 
	C950.063232,1030.691162 949.015442,1033.174561 947.268616,1035.049561 
	C942.657349,1039.999023 937.778320,1044.699219 932.748779,1049.752686 
M856.421692,976.887085 
	C873.662720,969.835571 890.903687,962.784058 908.212891,955.704651 
	C901.351196,942.249573 882.948669,936.032349 865.664062,944.312256 
	C851.746460,950.979370 839.409668,966.641479 842.658020,982.925537 
	C847.048523,980.967590 851.366455,979.042053 856.421692,976.887085 
z"/>
<path fill="#F5BB0F" opacity="1.000000" stroke="none" 
	d="
M527.852356,1060.950195 
	C506.027161,1069.751587 484.729034,1068.424805 463.937103,1059.222046 
	C445.728271,1051.162720 433.155579,1037.018677 425.222778,1019.043518 
	C410.901093,986.591797 419.888428,950.525818 446.418884,927.185608 
	C459.178192,915.960571 474.348755,910.335144 491.322845,908.911133 
	C510.063782,907.338867 527.358459,911.189758 542.700623,922.002991 
	C562.583435,936.016541 574.288513,954.982605 577.142517,979.558044 
	C579.591003,1000.642517 573.397644,1019.153503 561.309204,1035.629150 
	C552.951233,1047.020386 541.874146,1055.891724 527.852356,1060.950195 
M490.642853,1033.004883 
	C495.533264,1033.006592 500.486725,1033.514038 505.302155,1032.914062 
	C519.037903,1031.202515 528.466248,1022.746704 534.875244,1011.309021 
	C540.140076,1001.913269 540.930603,991.556702 540.297424,980.466492 
	C538.989746,957.562317 513.329834,936.113037 490.689209,941.951721 
	C479.654541,944.797302 470.772552,949.760498 464.508087,958.893677 
	C457.118958,969.666504 454.177673,981.492798 455.791290,994.906860 
	C457.893158,1012.379700 472.596069,1029.761719 490.642853,1033.004883 
z"/>
<path fill="#E84335" opacity="1.000000" stroke="none" 
	d="
M403.914734,1015.716553 
	C400.159454,1026.406982 393.931274,1035.194336 386.428986,1042.883057 
	C373.186554,1056.454346 356.928070,1063.846680 337.946777,1066.173218 
	C322.339569,1068.086060 307.776642,1065.114136 294.119324,1058.434326 
	C271.434174,1047.338867 257.339050,1028.954712 252.046814,1004.169434 
	C246.587921,978.603699 252.371475,955.265869 269.227753,935.722961 
	C282.960388,919.801636 300.742523,910.282410 322.567352,908.814758 
	C342.109436,907.500610 359.910889,911.507141 375.689026,922.990845 
	C392.280151,935.066345 403.174103,951.014038 407.061737,971.531250 
	C409.892426,986.470398 408.458282,1000.969116 403.914734,1015.716553 
M286.119446,992.012146 
	C288.351227,1001.464478 290.944946,1010.459534 297.437286,1018.412109 
	C308.594086,1032.078247 325.202698,1036.229248 340.350861,1032.176392 
	C363.264526,1026.046021 372.861938,1005.272278 372.407043,985.684326 
	C372.056396,970.586670 365.549530,957.633301 352.182526,948.305420 
	C334.330841,935.847839 312.219910,940.659973 299.555389,954.052551 
	C289.800781,964.367920 285.628082,976.969421 286.119446,992.012146 
z"/>
<path fill="#767676" opacity="1.000000" stroke="none" 
	d="
M1465.265991,915.580566 
	C1485.995117,923.491821 1495.979004,939.156189 1498.877808,959.949402 
	C1499.746338,966.180786 1499.926147,972.545227 1499.952515,978.850647 
	C1500.063477,1005.512390 1500.011230,1032.174805 1499.987061,1058.836914 
	C1499.980957,1065.613037 1499.624756,1065.941895 1492.950195,1065.989380 
	C1487.951294,1066.024780 1482.951904,1066.011597 1477.952759,1065.995361 
	C1470.179199,1065.969971 1470.012451,1065.830322 1470.007690,1058.234497 
	C1469.990723,1031.739014 1470.109253,1005.242676 1469.938721,978.748230 
	C1469.877197,969.191467 1468.819336,959.591614 1462.629395,951.776978 
	C1459.837280,948.251770 1456.262573,944.449585 1452.233276,942.953796 
	C1433.195923,935.886475 1415.920532,940.090271 1404.853882,958.593323 
	C1399.335327,967.820129 1396.858521,977.800964 1396.942871,988.601013 
	C1397.126343,1012.095642 1397.014160,1035.592651 1396.984253,1059.088623 
	C1396.976074,1065.515015 1396.528564,1065.933105 1390.192505,1065.986450 
	C1385.027100,1066.029785 1379.860962,1066.014771 1374.695312,1065.994141 
	C1367.254517,1065.964600 1367.017212,1065.757568 1367.009521,1058.476807 
	C1366.988159,1037.980225 1367.000122,1017.483765 1367.000122,996.987244 
	C1367.000000,950.828369 1366.996948,904.669556 1367.003906,858.510681 
	C1367.005249,850.020142 1367.024414,850.013123 1375.708008,850.003296 
	C1381.040405,849.997314 1386.375122,850.117188 1391.704468,849.991272 
	C1395.579712,849.899719 1397.056763,851.657166 1397.006714,855.426147 
	C1396.671143,880.729004 1396.414795,906.033020 1396.150269,931.336731 
	C1396.143677,931.971497 1396.343018,932.608276 1396.640137,934.437195 
	C1415.425171,912.056580 1439.023804,909.379211 1465.265991,915.580566 
z"/>
<path fill="#767676" opacity="1.000000" stroke="none" 
	d="
M1755.770508,936.830627 
	C1765.466797,926.089783 1776.386719,917.332703 1790.472534,914.848145 
	C1808.400146,911.685974 1826.794922,910.233582 1844.074219,917.632568 
	C1867.302734,927.578979 1879.316895,946.112000 1879.850952,971.185303 
	C1880.471680,1000.333069 1880.008179,1029.504150 1879.988892,1058.665161 
	C1879.984253,1065.687744 1879.684204,1065.959351 1872.621948,1065.990601 
	C1867.123169,1066.014771 1861.623047,1065.907349 1856.125732,1065.996948 
	C1852.551758,1066.055054 1850.913818,1064.501465 1851.008789,1060.904419 
	C1851.107544,1057.161987 1851.030762,1053.414673 1851.030762,1049.558350 
	C1844.589966,1054.594238 1839.233765,1059.865479 1832.934814,1063.505371 
	C1813.549805,1074.706543 1793.655151,1073.617432 1774.318726,1063.423340 
	C1756.122559,1053.830322 1746.738525,1038.352295 1747.070801,1017.595642 
	C1747.396240,997.271912 1762.498291,978.504944 1782.040283,973.132751 
	C1803.316406,967.283875 1824.410645,967.246948 1845.442017,974.232117 
	C1850.359131,975.865234 1851.330078,974.964539 1850.909790,969.711182 
	C1849.676880,954.301758 1834.589844,940.221252 1819.001221,940.080566 
	C1810.887695,940.007324 1802.414917,938.688477 1795.174805,943.542847 
	C1790.135498,946.921814 1785.278320,950.794495 1781.116333,955.183044 
	C1778.302612,958.150146 1776.184937,958.585205 1773.057373,956.461243 
	C1767.823853,952.906921 1762.677246,949.204895 1757.277344,945.921570 
	C1753.195312,943.439514 1752.425903,940.772705 1755.770508,936.830627 
M1786.139160,1036.393433 
	C1799.526489,1046.656616 1813.526001,1046.145508 1827.790039,1038.556763 
	C1839.580811,1032.283936 1847.137329,1022.509766 1850.517700,1009.623840 
	C1851.523193,1005.790710 1851.611206,1002.064270 1846.951660,999.955017 
	C1828.787109,991.732239 1810.744873,990.163757 1792.049561,998.831177 
	C1779.240723,1004.769592 1772.834473,1024.248169 1786.139160,1036.393433 
z"/>
<path fill="#767676" opacity="1.000000" stroke="none" 
	d="
M1544.256470,933.245667 
	C1558.928833,920.253601 1574.940430,911.611023 1594.995483,912.956299 
	C1601.130249,913.367798 1607.353149,912.793274 1613.442627,913.486511 
	C1626.642212,914.989136 1637.413940,921.762146 1647.515137,929.976135 
	C1664.296753,943.622253 1671.976074,961.678040 1674.159668,982.700195 
	C1676.461060,1004.856628 1671.603882,1025.179199 1658.015747,1042.807373 
	C1644.243286,1060.674805 1625.403687,1069.525269 1602.962158,1071.021362 
	C1586.135010,1072.143188 1570.450317,1068.398438 1556.245972,1059.506958 
	C1542.937500,1051.176025 1532.778687,1039.547852 1527.302979,1024.861572 
	C1515.933838,994.368286 1518.843506,965.409851 1538.969482,939.014526 
	C1540.473755,937.041748 1542.318848,935.328918 1544.256470,933.245667 
M1562.594238,957.145569 
	C1561.390259,958.942444 1560.190186,960.741882 1558.981567,962.535828 
	C1543.550537,985.439270 1551.499390,1024.448730 1574.742920,1037.081299 
	C1593.669922,1047.368042 1613.772461,1045.831177 1629.010864,1031.044189 
	C1643.314087,1017.164429 1647.505859,998.986328 1643.211670,979.529785 
	C1638.892822,959.961609 1628.203369,945.268555 1607.577881,940.847839 
	C1589.871582,937.052734 1574.710815,942.348755 1562.594238,957.145569 
z"/>
<path fill="#767676" opacity="1.000000" stroke="none" 
	d="
M1340.356567,958.390198 
	C1334.609253,960.724243 1329.113892,962.684692 1323.849365,965.140015 
	C1319.538086,967.150757 1317.175781,966.461487 1314.853271,961.976929 
	C1300.808594,934.858032 1265.990234,932.859680 1248.020264,952.059204 
	C1232.737061,968.388000 1227.766846,988.540833 1235.366943,1010.481567 
	C1241.619507,1028.531250 1253.523804,1040.454590 1273.104370,1043.252808 
	C1289.563599,1045.604736 1308.600098,1036.671387 1316.036133,1021.956299 
	C1319.324951,1015.447998 1319.457397,1015.408569 1326.263428,1018.294312 
	C1331.164429,1020.372437 1335.891724,1022.862305 1340.805054,1024.907837 
	C1344.626465,1026.498657 1345.253296,1028.951660 1343.653076,1032.448608 
	C1338.530640,1043.643555 1330.786621,1052.720337 1320.420532,1059.187378 
	C1300.400513,1071.677368 1278.786621,1074.416870 1256.145020,1067.979614 
	C1237.366211,1062.640503 1223.062744,1051.299805 1213.237183,1034.433350 
	C1201.001953,1013.430420 1198.514282,990.895386 1205.208374,967.895691 
	C1213.762329,938.506348 1232.998047,918.769653 1263.667114,913.787048 
	C1280.197144,911.101562 1297.728027,910.574402 1313.241699,920.141663 
	C1325.584595,927.753418 1336.296997,937.047668 1342.695557,950.448547 
	C1344.126221,953.445007 1345.109863,956.596497 1340.356567,958.390198 
z"/>
<path fill="#319F4F" opacity="1.000000" stroke="none" 
	d="
M757.893677,834.083618 
	C759.792114,833.065796 761.655396,831.255798 763.595093,831.169739 
	C771.246216,830.830444 778.922180,831.104004 786.587158,831.007446 
	C791.288025,830.948242 793.076355,833.151672 793.034912,837.756348 
	C792.907410,851.921265 792.999023,866.088074 792.999329,880.254150 
	C793.000549,937.751770 793.002991,995.249451 792.995239,1052.747070 
	C792.994080,1061.552124 792.559265,1061.968262 783.585388,1061.994141 
	C777.252380,1062.012573 770.915588,1062.113647 764.588318,1061.920410 
	C762.526123,1061.857666 760.488708,1060.983032 758.193604,1059.735352 
	C757.964722,1034.667603 758.004822,1010.344238 757.995300,986.020813 
	C757.975403,935.375061 757.929138,884.729370 757.893677,834.083618 
z"/>
<path fill="#767676" opacity="1.000000" stroke="none" 
	d="
M1726.000000,1014.000000 
	C1725.997925,1029.488037 1726.025879,1044.476318 1725.978760,1059.464233 
	C1725.959961,1065.477661 1725.456665,1065.939209 1719.324097,1065.982910 
	C1713.162842,1066.026855 1707.000488,1065.930908 1700.839355,1065.981812 
	C1697.485718,1066.009521 1695.924194,1064.454712 1696.026123,1061.124023 
	C1696.066895,1059.793457 1696.001953,1058.459961 1696.001831,1057.127808 
	C1696.000244,991.013672 1695.998413,924.899536 1696.002808,858.785400 
	C1696.003418,850.016541 1696.018311,850.009766 1704.923584,850.002930 
	C1710.252563,849.998840 1715.582886,850.093018 1720.910278,850.004150 
	C1724.505371,849.944214 1726.130493,851.557434 1725.985840,855.126770 
	C1725.911621,856.955139 1725.998657,858.789795 1725.998779,860.621582 
	C1726.000244,911.581055 1726.000000,962.540527 1726.000000,1014.000000 
z"/>
<path fill="#6E8779" opacity="1.000000" stroke="none" 
	d="
M757.708801,834.445190 
	C757.929138,884.729370 757.975403,935.375061 757.995300,986.020813 
	C758.004822,1010.344238 757.964722,1034.667603 757.920410,1059.453735 
	C757.596375,1057.632202 757.040649,1055.348022 757.039124,1053.063721 
	C756.993347,982.292297 756.997559,911.520813 757.023743,840.749390 
	C757.024475,838.768433 757.349915,836.787659 757.708801,834.445190 
z"/>
<path fill="#5B88B1" opacity="1.000000" stroke="none" 
	d="
M235.732147,933.663330 
	C199.039062,933.952515 162.007782,933.991882 124.510513,934.032532 
	C125.633911,933.691345 127.222832,933.052551 128.812790,933.049988 
	C163.190918,932.993835 197.569138,933.004822 231.947342,933.026917 
	C233.096298,933.027649 234.245087,933.278992 235.732147,933.663330 
z"/>
<path fill="#658194" opacity="1.000000" stroke="none" 
	d="
M985.483521,740.330444 
	C995.741821,740.128357 1006.361877,740.088623 1017.430115,740.108521 
	C1007.200623,740.276245 996.523010,740.384521 985.483521,740.330444 
z"/>
<path fill="#6E8779" opacity="1.000000" stroke="none" 
	d="
M737.626221,913.664551 
	C727.646912,913.866089 717.296082,913.892090 706.479248,913.878052 
	C716.427063,913.721741 726.840881,913.605347 737.626221,913.664551 
z"/>
<path fill="#77A5CD" opacity="1.000000" stroke="none" 
	d="
M1195.823242,431.721436 
	C1069.057251,432.057556 942.194885,432.056396 815.332581,432.050110 
	C812.835754,432.049988 810.338989,431.989777 807.365967,431.925079 
	C814.376343,413.831146 825.282227,397.882721 838.140076,383.366943 
	C880.498474,335.546783 933.698120,310.622253 997.641174,308.843719 
	C998.473450,308.820618 999.304565,308.753448 1000.604797,308.643494 
	C1020.467285,308.694733 1039.685059,311.242432 1058.202637,316.500153 
	C1120.949097,334.315704 1166.785522,372.857971 1195.823242,431.721436 
z"/>
<path fill="#47704C" opacity="1.000000" stroke="none" 
	d="
M694.262329,953.759705 
	C710.933655,972.318176 711.107178,1003.398621 694.705566,1021.706848 
	C679.444702,1038.741699 650.234436,1036.777588 636.480164,1020.365112 
	C621.513184,1002.505493 619.651794,983.292664 630.451782,963.588013 
	C643.692871,939.429749 673.534058,932.455322 694.262329,953.759705 
z"/>
<path fill="#47704C" opacity="1.000000" stroke="none" 
	d="
M856.053040,977.001831 
	C851.366455,979.042053 847.048523,980.967590 842.658020,982.925537 
	C839.409668,966.641479 851.746460,950.979370 865.664062,944.312256 
	C882.948669,936.032349 901.351196,942.249573 908.212891,955.704651 
	C890.903687,962.784058 873.662720,969.835571 856.053040,977.001831 
z"/>
<path fill="#47704C" opacity="1.000000" stroke="none" 
	d="
M490.208038,1033.000732 
	C472.596069,1029.761719 457.893158,1012.379700 455.791290,994.906860 
	C454.177673,981.492798 457.118958,969.666504 464.508087,958.893677 
	C470.772552,949.760498 479.654541,944.797302 490.689209,941.951721 
	C513.329834,936.113037 538.989746,957.562317 540.297424,980.466492 
	C540.930603,991.556702 540.140076,1001.913269 534.875244,1011.309021 
	C528.466248,1022.746704 519.037903,1031.202515 505.302155,1032.914062 
	C500.486725,1033.514038 495.533264,1033.006592 490.208038,1033.000732 
z"/>
<path fill="#47704C" opacity="1.000000" stroke="none" 
	d="
M286.077087,991.564880 
	C285.628082,976.969421 289.800781,964.367920 299.555389,954.052551 
	C312.219910,940.659973 334.330841,935.847839 352.182526,948.305420 
	C365.549530,957.633301 372.056396,970.586670 372.407043,985.684326 
	C372.861938,1005.272278 363.264526,1026.046021 340.350861,1032.176392 
	C325.202698,1036.229248 308.594086,1032.078247 297.437286,1018.412109 
	C290.944946,1010.459534 288.351227,1001.464478 286.077087,991.564880 
z"/>
<path fill="#47704C" opacity="1.000000" stroke="none" 
	d="
M1785.864014,1036.161255 
	C1772.834473,1024.248169 1779.240723,1004.769592 1792.049561,998.831177 
	C1810.744873,990.163757 1828.787109,991.732239 1846.951660,999.955017 
	C1851.611206,1002.064270 1851.523193,1005.790710 1850.517700,1009.623840 
	C1847.137329,1022.509766 1839.580811,1032.283936 1827.790039,1038.556763 
	C1813.526001,1046.145508 1799.526489,1046.656616 1785.864014,1036.161255 
z"/>
<path fill="#47704C" opacity="1.000000" stroke="none" 
	d="
M1562.822021,956.870850 
	C1574.710815,942.348755 1589.871582,937.052734 1607.577881,940.847839 
	C1628.203369,945.268555 1638.892822,959.961609 1643.211670,979.529785 
	C1647.505859,998.986328 1643.314087,1017.164429 1629.010864,1031.044189 
	C1613.772461,1045.831177 1593.669922,1047.368042 1574.742920,1037.081299 
	C1551.499390,1024.448730 1543.550537,985.439270 1558.981567,962.535828 
	C1560.190186,960.741882 1561.390259,958.942444 1562.822021,956.870850 
z"/>
</svg>